<?xml version="1.0" encoding="UTF-8" standalone="no"?>
<svg
   xmlns:dc="http://purl.org/dc/elements/1.1/"
   xmlns:cc="http://creativecommons.org/ns#"
   xmlns:rdf="http://www.w3.org/1999/02/22-rdf-syntax-ns#"
   xmlns:svg="http://www.w3.org/2000/svg"
   xmlns="http://www.w3.org/2000/svg"
   id="svg2"
   xml:space="preserve"
   style="enable-background:new 0 0 100 100;"
   viewBox="0 0 100 125"
   y="0px"
   x="0px"
   version="1.1"><metadata
     id="metadata20"><rdf:RDF><cc:Work
         rdf:about=""><dc:format>image/svg+xml</dc:format><dc:type
           rdf:resource="http://purl.org/dc/dcmitype/StillImage" /><dc:title></dc:title></cc:Work></rdf:RDF></metadata><defs
     id="defs18" /><g
     id="g4"><path
       id="path6"
       d="M58.3,25c-2-3.1-5.2-4.6-8.5-4.6S43.3,22,41.4,25L14.8,66.4c-4.3,6.7,0.5,15.5,8.5,15.5h53.1c8,0,12.8-8.8,8.5-15.5   L58.3,25z M82.6,75.2c-1.3,2.3-3.6,3.7-6.2,3.7H23.3c-2.6,0-4.9-1.4-6.2-3.7c-1.3-2.3-1.2-5,0.3-7.2l26.6-41.3   c1.3-2.1,3.5-3.2,5.9-3.2c2.5,0,4.6,1.2,5.9,3.2L82.3,68C83.7,70.2,83.8,72.9,82.6,75.2z" /><path
       id="path8"
       d="M49.4,65.1c-1.6,0-2.4,0.9-2.4,2.7c0,0.9,0.2,1.6,0.7,2c0.4,0.4,1,0.6,1.7,0.6c0.8,0,1.3-0.2,1.8-0.7s0.6-1.1,0.6-2   c0-0.9-0.2-1.5-0.6-2C50.7,65.3,50.2,65.1,49.4,65.1z" /><polygon
       id="polygon10"
       points="50.5,61.9 51.5,41 47.4,41 48.4,61.9  " /></g></svg>