<?xml version="1.0" encoding="UTF-8" standalone="no"?>
<svg
   xmlns:dc="http://purl.org/dc/elements/1.1/"
   xmlns:cc="http://creativecommons.org/ns#"
   xmlns:rdf="http://www.w3.org/1999/02/22-rdf-syntax-ns#"
   xmlns:svg="http://www.w3.org/2000/svg"
   xmlns="http://www.w3.org/2000/svg"
   version="1.1"
   id="svg2"
   y="0px"
   x="0px"
   viewBox="0 0 51.91 60">
  <metadata
     id="metadata30">
    <rdf:RDF>
      <cc:Work
         rdf:about="">
        <dc:format>image/svg+xml</dc:format>
        <dc:type
           rdf:resource="http://purl.org/dc/dcmitype/StillImage" />
        <dc:title>lightbulb</dc:title>
      </cc:Work>
    </rdf:RDF>
  </metadata>
  <defs
     id="defs28" />
  <title
     id="title4">lightbulb</title>
  <g
     id="g6">
    <path
       id="path8"
       d="M26,1.17A15.25,15.25,0,0,0,10.73,16.4c0,2.42,2,7.32,4.16,12.51,1.11,2.7,2.26,5.48,3,7.67A.92.92,0,0,0,19.62,36c-.76-2.24-1.92-5.05-3-7.78-1.33-3.23-2.79-6.77-3.53-9.29H38.86c-.74,2.54-2.21,6.09-3.55,9.35C34.19,31,33,33.8,32.28,36a.92.92,0,1,0,1.74.59c.74-2.18,1.88-5,3-7.65,2.15-5.22,4.18-10.15,4.18-12.58A15.25,15.25,0,0,0,26,1.17ZM12.62,17.09a4.75,4.75,0,0,1-.06-.69,13.4,13.4,0,1,1,26.79,0,4.77,4.77,0,0,1-.06.69Z" />
    <path
       id="path10"
       d="M26.88,36.33V22.41a.92.92,0,1,0-1.84,0V36.33a.92.92,0,1,0,1.84,0Z" />
    <path
       id="path12"
       d="M30.32,39.14H21.6a.92.92,0,1,0,0,1.84h8.72a.92.92,0,1,0,0-1.84Z" />
    <path
       id="path14"
       d="M30.32,42.07H21.6a.92.92,0,0,0,0,1.84h8.72a.92.92,0,1,0,0-1.84Z" />
    <path
       id="path16"
       d="M28.64,45H23.28a.92.92,0,1,0,0,1.84h5.36a.92.92,0,1,0,0-1.84Z" />
    <path
       id="path18"
       d="M22.58,37a.92.92,0,0,0,.89-1.15L20,22.41a.92.92,0,0,0-1.78.46l3.49,13.47A.92.92,0,0,0,22.58,37Z" />
    <path
       id="path20"
       d="M29.44,37a.92.92,0,0,0,.89-.69l3.49-13.47A.92.92,0,0,0,32,22.41L28.55,35.87A.92.92,0,0,0,29.44,37Z" />
  </g>
</svg>
