<?xml version="1.0" encoding="UTF-8" standalone="no"?>
<svg
   xmlns:dc="http://purl.org/dc/elements/1.1/"
   xmlns:cc="http://creativecommons.org/ns#"
   xmlns:rdf="http://www.w3.org/1999/02/22-rdf-syntax-ns#"
   xmlns:svg="http://www.w3.org/2000/svg"
   xmlns="http://www.w3.org/2000/svg"
   xmlns:sodipodi="http://sodipodi.sourceforge.net/DTD/sodipodi-0.dtd"
   xmlns:inkscape="http://www.inkscape.org/namespaces/inkscape"
   version="1.1"
   x="0px"
   y="0px"
   viewBox="0 0 100 125"
   enable-background="new 0 0 100 100"
   xml:space="preserve"
   id="svg8"
   sodipodi:docname="delivery.svg"
   inkscape:version="0.92.2 (5c3e80d, 2017-08-06)"><metadata
     id="metadata14"><rdf:RDF><cc:Work
         rdf:about=""><dc:format>image/svg+xml</dc:format><dc:type
           rdf:resource="http://purl.org/dc/dcmitype/StillImage" /><dc:title /></cc:Work></rdf:RDF></metadata><defs
     id="defs12" /><sodipodi:namedview
     pagecolor="#ffffff"
     bordercolor="#666666"
     borderopacity="1"
     objecttolerance="10"
     gridtolerance="10"
     guidetolerance="10"
     inkscape:pageopacity="0"
     inkscape:pageshadow="2"
     inkscape:window-width="1920"
     inkscape:window-height="1025"
     id="namedview10"
     showgrid="false"
     inkscape:zoom="1.888"
     inkscape:cx="-111.54661"
     inkscape:cy="62.5"
     inkscape:window-x="0"
     inkscape:window-y="27"
     inkscape:window-maximized="1"
     inkscape:current-layer="svg8" /><path
     d="M80.4,53C80.4,53,80.4,53,80.4,53l-8.7-18.2l8.1-1.1c0.4,0,0.6-0.4,0.6-0.7c0-0.4-0.3-0.7-0.6-0.7l-8-1.1  c2.1-1.8,3.8-4.6,3.8-4.8c0.1-0.2,0.1-0.5,0-0.8c-0.1-0.2-0.4-0.4-0.7-0.3c-4.6,0.5-6.6,2.6-6.9,2.9c0,0,0,0,0,0  c-0.1-0.2-1.7-1.8-5.2-2.2c-0.3,0-0.5,0.1-0.7,0.3c-0.1,0.2-0.2,0.5,0,0.8c0.1,0.1,1,1.7,2.3,3l-13.9-2c-0.8-1.1-4.3-5-9.4-5.8  c-3.6-0.5-7.2,0.6-10.7,3.3c-0.2,0.2-5.9,4.4-4,14.3c0.9,4.7,1.5,14-2.1,19.1c-1.4,1.9-3.2,3.1-5.5,3.4c-0.4,0.1-0.7,0.4-0.6,0.8  c0.1,0.4,0.4,0.6,0.7,0.6c0,0,0.1,0,0.1,0c2.7-0.4,4.9-1.8,6.5-4c4.8-6.8,2.6-18.8,2.3-20.2C26,30.8,30.9,27,31.2,26.9  c3.2-2.5,6.4-3.5,9.6-3c5.3,0.8,8.7,5.4,8.7,5.4c0.1,0.2,0.3,0.3,0.5,0.3L74.4,33L50,36.4h0c-0.1,0-5.9,0.7-12.3,2.2  c-4.6,1.1-4.4,6.5-4.2,10.5c0,0.7,0.1,1.4,0.1,2l0,0.5c0.1,14.6-4.7,22.9-14.2,24.6c-0.4,0.1-0.7,0.4-0.6,0.8  c0.1,0.3,0.4,0.6,0.7,0.6c0,0,0.1,0,0.1,0c10.3-1.9,15.4-10.6,15.4-26l0-0.5c0-0.6,0-1.4-0.1-2.1c-0.2-4.7-0.1-8.3,3.1-9.1  c6.3-1.5,12.1-2.2,12.1-2.2c0,0,0,0,0,0c0,0,0,0,0,0l14.6-2L56.5,53c0,0,0,0,0,0c-1,1.8-1.5,3.9-1.5,6c0,7.2,5.8,13,13,13h0.8  c7.2,0,13-5.8,13-13C81.9,56.9,81.4,54.8,80.4,53z M66.1,29.7c-0.7-0.5-1.3-1.3-1.8-2c1.3,0.4,2,0.9,2.4,1.1  C66.4,29.1,66.2,29.4,66.1,29.7z M67.3,30.5c0.1-0.6,0.6-1,1.2-1c0.7,0,1.2,0.5,1.2,1.2c0,0,0,0.1,0,0.1L67.3,30.5z M71,29.9  c-0.2-0.6-0.6-1.1-1.2-1.4c0.7-0.5,1.9-1.1,3.7-1.5C72.9,27.9,72,29.1,71,29.9z M68.8,70.6h-0.8c-6.4,0-11.6-5.2-11.6-11.6  c0-1.9,0.4-3.7,1.3-5.3c0,0,0,0,0,0l8.7-18.1l3.7-0.5c0,0.1,0,0.1,0,0.2l8.9,18.4c0,0,0,0,0,0c0,0,0,0,0,0c0.9,1.7,1.3,3.4,1.3,5.3  C80.4,65.4,75.2,70.6,68.8,70.6z M78.9,59.7c0,5.3-4.3,9.5-9.5,9.5c-0.4,0-0.7-0.3-0.7-0.7c0-0.4,0.3-0.7,0.7-0.7  c4.5,0,8.1-3.6,8.1-8.1c0-0.4,0.3-0.7,0.7-0.7C78.6,58.9,78.9,59.3,78.9,59.7z M68.1,38.6l-5.9,12.2c-0.1,0.3-0.4,0.4-0.6,0.4  c-0.1,0-0.2,0-0.3-0.1c-0.4-0.2-0.5-0.6-0.3-1L66.8,38c0.2-0.4,0.6-0.5,1-0.3C68.1,37.9,68.2,38.3,68.1,38.6z"
     id="path2"
     style="fill:#aac3c9;fill-opacity:1" /></svg>