<?xml version="1.0" encoding="UTF-8" standalone="no"?>
<svg
   xmlns:dc="http://purl.org/dc/elements/1.1/"
   xmlns:cc="http://creativecommons.org/ns#"
   xmlns:rdf="http://www.w3.org/1999/02/22-rdf-syntax-ns#"
   xmlns:svg="http://www.w3.org/2000/svg"
   xmlns="http://www.w3.org/2000/svg"
   xmlns:sodipodi="http://sodipodi.sourceforge.net/DTD/sodipodi-0.dtd"
   xmlns:inkscape="http://www.inkscape.org/namespaces/inkscape"
   version="1.1"
   x="0px"
   y="0px"
   viewBox="0 0 100 125"
   id="svg10"
   sodipodi:docname="general.svg"
   inkscape:version="0.92.2 (5c3e80d, 2017-08-06)">
  <metadata
     id="metadata16">
    <rdf:RDF>
      <cc:Work
         rdf:about="">
        <dc:format>image/svg+xml</dc:format>
        <dc:type
           rdf:resource="http://purl.org/dc/dcmitype/StillImage" />
        <dc:title />
      </cc:Work>
    </rdf:RDF>
  </metadata>
  <defs
     id="defs14" />
  <sodipodi:namedview
     pagecolor="#ffffff"
     bordercolor="#666666"
     borderopacity="1"
     objecttolerance="10"
     gridtolerance="10"
     guidetolerance="10"
     inkscape:pageopacity="0"
     inkscape:pageshadow="2"
     inkscape:window-width="1920"
     inkscape:window-height="1025"
     id="namedview12"
     showgrid="false"
     inkscape:zoom="1.888"
     inkscape:cx="-111.54661"
     inkscape:cy="62.5"
     inkscape:window-x="0"
     inkscape:window-y="27"
     inkscape:window-maximized="1"
     inkscape:current-layer="svg10" />
  <g
     transform="translate(0,-952.36218)"
     id="g4"
     style="fill:#aac3c9;fill-opacity:1">
    <path
       style="font-size:medium;font-style:normal;font-variant:normal;font-weight:normal;font-stretch:normal;text-indent:0;text-align:start;text-decoration:none;line-height:normal;letter-spacing:normal;word-spacing:normal;text-transform:none;direction:ltr;block-progression:tb;writing-mode:lr-tb;text-anchor:start;baseline-shift:baseline;opacity:1;color:#000000;fill:#aac3c9;fill-opacity:1;stroke:none;stroke-width:3.74999976;marker:none;visibility:visible;display:inline;overflow:visible;enable-background:accumulate;font-family:Sans;-inkscape-font-specification:Sans"
       d="M 50 6 C 31.246004 6 16 21.24601 16 40 C 16 52.37951 22.651246 63.1818 32.5625 69.125 L 28.09375 77.78125 L 18.90625 73.1875 A 2.0002 2.0002 0 0 0 17.9375 72.96875 A 2.0002 2.0002 0 0 0 17.09375 76.78125 L 26.25 81.34375 L 21.21875 91.0625 A 2.0002 2.0002 0 1 0 24.78125 92.9375 L 29.84375 83.15625 L 39.09375 87.78125 A 2.012451 2.012451 0 1 0 40.90625 84.1875 L 31.6875 79.5625 L 36.96875 69.3125 A 2.0002 2.0002 0 0 0 36.125 66.59375 C 26.539912 61.58755 20 51.58141 20 40 C 20 23.40777 33.407775 10 50 10 C 66.592224 10 80 23.40777 80 40 C 80 56.59221 66.592224 70 50 70 C 47.745525 70 45.546225 69.75115 43.4375 69.28125 A 2.0138411 2.0138411 0 1 0 42.5625 73.1875 C 44.954276 73.7205 47.451786 74 50 74 C 68.753995 74 84 58.75401 84 40 C 84 21.24601 68.753995 6 50 6 z "
       transform="translate(0,952.36218)"
       id="path2" />
  </g>
</svg>
