<?xml version="1.0" encoding="UTF-8" standalone="no"?>
<svg
   xmlns:dc="http://purl.org/dc/elements/1.1/"
   xmlns:cc="http://creativecommons.org/ns#"
   xmlns:rdf="http://www.w3.org/1999/02/22-rdf-syntax-ns#"
   xmlns:svg="http://www.w3.org/2000/svg"
   xmlns="http://www.w3.org/2000/svg"
   xmlns:sodipodi="http://sodipodi.sourceforge.net/DTD/sodipodi-0.dtd"
   xmlns:inkscape="http://www.inkscape.org/namespaces/inkscape"
   version="1.1"
   x="0px"
   y="0px"
   viewBox="0 0 100 125"
   style="enable-background:new 0 0 100 100;"
   xml:space="preserve"
   id="svg22"
   sodipodi:docname="gynecology.svg"
   inkscape:version="0.92.2 (5c3e80d, 2017-08-06)"><metadata
     id="metadata28"><rdf:RDF><cc:Work
         rdf:about=""><dc:format>image/svg+xml</dc:format><dc:type
           rdf:resource="http://purl.org/dc/dcmitype/StillImage" /><dc:title></dc:title></cc:Work></rdf:RDF></metadata><defs
     id="defs26" /><sodipodi:namedview
     pagecolor="#ffffff"
     bordercolor="#666666"
     borderopacity="1"
     objecttolerance="10"
     gridtolerance="10"
     guidetolerance="10"
     inkscape:pageopacity="0"
     inkscape:pageshadow="2"
     inkscape:window-width="1920"
     inkscape:window-height="1025"
     id="namedview24"
     showgrid="false"
     inkscape:zoom="1.888"
     inkscape:cx="-5.6144068"
     inkscape:cy="62.5"
     inkscape:window-x="0"
     inkscape:window-y="27"
     inkscape:window-maximized="1"
     inkscape:current-layer="svg22" /><g
     id="g4"><path
       d="M21.705,30.833c-1.011,0-1.993-0.139-2.83-0.378c-3.691-1.053-5.509-4.08-4.524-7.53s4.122-5.065,7.817-4.009l0,0   c1.701,0.485,3.417,1.527,4.591,2.787c1.491,1.599,2.036,3.446,1.535,5.201C27.471,29.789,24.478,30.833,21.705,30.833z    M20.012,20.605c-1.596,0-3.134,0.75-3.739,2.869c-0.809,2.835,1.097,4.472,3.15,5.059c2.39,0.681,6.24,0.299,6.947-2.177   c0.386-1.352-0.372-2.534-1.075-3.289c-0.923-0.99-2.332-1.843-3.677-2.228C21.099,20.691,20.552,20.605,20.012,20.605z"
       id="path2"
       style="fill:#aac3c9;fill-opacity:1" /></g><g
     id="g8"
     style="fill:#aac3c9;fill-opacity:1"><path
       d="M78.296,30.833c-2.774,0-5.767-1.044-6.59-3.929c-0.5-1.755,0.045-3.602,1.535-5.201c1.175-1.26,2.891-2.302,4.592-2.787   l0,0c1.684-0.48,3.362-0.399,4.726,0.229c1.516,0.698,2.584,2.005,3.091,3.779c0.984,3.451-0.833,6.477-4.523,7.53   C80.289,30.694,79.307,30.833,78.296,30.833z M79.98,20.606c-0.513,0-1.051,0.078-1.598,0.233l0,0   c-1.346,0.384-2.755,1.237-3.678,2.228c-0.703,0.754-1.46,1.937-1.074,3.289c0.706,2.477,4.557,2.858,6.947,2.177   c2.053-0.586,3.958-2.223,3.148-5.059c-0.346-1.213-1.021-2.059-2.004-2.512C81.207,20.725,80.613,20.606,79.98,20.606z    M78.108,19.878h0.01H78.108z"
       id="path6"
       style="fill:#aac3c9;fill-opacity:1" /></g><path
     d="M45.733,53.007c2.068-1.655,3.075-4.304,2.627-6.914l-5.373-31.347c0,0,0-0.001,0-0.001l0-0.002  c-0.021-0.122-0.069-0.232-0.129-0.334c-0.006-0.011-0.006-0.024-0.013-0.034c-0.013-0.021-0.034-0.031-0.049-0.051  c-0.052-0.07-0.111-0.132-0.18-0.187c-0.031-0.024-0.059-0.048-0.092-0.069c-0.074-0.046-0.154-0.079-0.239-0.104  c-0.029-0.009-0.056-0.024-0.086-0.03c-0.007-0.001-0.013-0.005-0.02-0.007c-7.243-1.316-14.42-3.269-21.332-5.802l-2.383-0.871  c-2.039-0.611-4.187-0.425-6.048,0.525c-1.875,0.958-3.236,2.577-3.83,4.557c-1.165,3.877,0.686,7.78,4.401,9.278  c0.479,0.194,1.023-0.008,1.261-0.465c1.549-2.972,4.875-4.143,8.676-3.058c0.531,0.154,1.085-0.155,1.236-0.687  c0.152-0.531-0.156-1.084-0.687-1.236c-4.408-1.258-8.342-0.026-10.503,3.217c-2.215-1.293-3.245-3.889-2.469-6.473  c0.437-1.453,1.439-2.643,2.825-3.351c1.399-0.715,3.021-0.855,4.506-0.41l2.327,0.853c6.295,2.307,12.811,4.116,19.393,5.434  c-2.276,1.817-3.609,3.741-3.938,5.742c-0.309,1.881,0.273,3.798,1.682,5.545c1.188,1.474,1.916,3.144,2.103,4.83l0.061,0.542  c0.335,3.018-0.256,6.021-1.673,8.625l-1.147,1.787C34.912,45.198,34,48.306,34,51.501c0,0.996,0.09,1.997,0.269,2.978l7.748,42.612  c0.088,0.483,0.509,0.821,0.983,0.821c0.059,0,0.12-0.005,0.18-0.017c0.543-0.099,0.904-0.619,0.805-1.162l-7.748-42.612  C36.08,53.259,36,52.377,36,51.501c0-2.811,0.803-5.546,2.321-7.911l1.184-1.849c1.651-3.027,2.323-6.438,1.942-9.865l-0.061-0.542  c-0.229-2.066-1.105-4.094-2.534-5.865c-1.056-1.31-1.482-2.644-1.265-3.966c0.268-1.631,1.515-3.268,3.692-4.879l5.109,29.807  c0.325,1.893-0.405,3.814-1.905,5.014c-1.575,1.26-2.379,3.282-2.106,5.231l3.627,40.326c0.047,0.52,0.483,0.91,0.995,0.91  c0.03,0,0.06-0.001,0.09-0.004c0.55-0.05,0.956-0.535,0.907-1.086l-3.633-40.375C44.182,55.146,44.706,53.827,45.733,53.007z"
     id="path10"
     style="fill:#aac3c9;fill-opacity:1" /><g
     id="g14"
     style="fill:#aac3c9;fill-opacity:1"><path
       d="M18.807,33.516c-0.091,0-0.183-0.013-0.275-0.039c-4.005-1.143-6.628-3.851-7.137-7.313   c-6.129-2.512-9.452-9.095-7.599-15.265c1.982-6.601,9.176-10.297,16.045-8.234l8.713,2.302c2.267,0.6,4.676,0.646,6.966,0.138   l1.885-0.419c2.376-0.529,4.865-0.438,7.196,0.262l3.57,1.258c1.179,0.415,2.479,0.415,3.657,0l3.524-1.243   c2.377-0.715,4.865-0.806,7.242-0.277l1.886,0.419c2.29,0.509,4.698,0.461,6.965-0.138l8.745-2.311   c3.287-0.987,6.78-0.684,9.807,0.862c3.04,1.554,5.244,4.175,6.207,7.38c1.853,6.17-1.471,12.753-7.6,15.265   c-0.508,3.462-3.131,6.17-7.137,7.313c-0.525,0.153-1.083-0.154-1.236-0.687c-0.151-0.531,0.156-1.084,0.688-1.236   c3.407-0.973,5.561-3.28,5.76-6.174c0.028-0.396,0.287-0.739,0.662-0.873c5.501-1.962,8.553-7.688,6.947-13.033   c-0.804-2.679-2.651-4.872-5.201-6.175c-2.565-1.311-5.53-1.567-8.354-0.718l-8.776,2.32c-2.575,0.681-5.309,0.735-7.91,0.157   l-1.886-0.419c-2.043-0.454-4.184-0.376-6.188,0.226l-3.479,1.228c-1.609,0.567-3.379,0.567-4.988,0l-3.524-1.243   c-1.961-0.586-4.1-0.665-6.143-0.21l-1.885,0.419c-2.6,0.578-5.335,0.523-7.91-0.157L19.298,4.59   C13.459,2.838,7.377,5.929,5.711,11.474c-1.605,5.346,1.447,11.071,6.948,13.033c0.375,0.134,0.634,0.476,0.662,0.873   c0.201,2.894,2.354,5.202,5.76,6.174c0.531,0.151,0.839,0.705,0.687,1.236C19.643,33.23,19.242,33.516,18.807,33.516z"
       id="path12"
       style="fill:#aac3c9;fill-opacity:1" /></g><path
     d="M91.416,12.337c-0.595-1.98-1.955-3.598-3.831-4.557c-1.861-0.952-4.012-1.137-6.104-0.507l-2.326,0.853  c-6.914,2.534-14.092,4.485-21.333,5.802c-0.008,0.001-0.014,0.006-0.022,0.008c-0.027,0.006-0.051,0.019-0.077,0.027  c-0.088,0.026-0.17,0.06-0.246,0.107c-0.033,0.02-0.061,0.044-0.092,0.068c-0.068,0.054-0.128,0.116-0.18,0.186  c-0.014,0.019-0.036,0.03-0.049,0.051c-0.007,0.011-0.007,0.024-0.013,0.035c-0.059,0.101-0.106,0.209-0.127,0.329  c-0.001,0.004-0.002,0.007-0.003,0.011l-5.373,31.343c-0.448,2.61,0.558,5.259,2.627,6.915c1.026,0.82,1.551,2.139,1.363,3.489  l-3.627,40.326c-0.05,0.551,0.356,1.036,0.906,1.086c0.03,0.003,0.061,0.004,0.091,0.004c0.512,0,0.948-0.391,0.995-0.91  l3.621-40.277c0.279-1.998-0.526-4.021-2.101-5.28c-1.5-1.2-2.23-3.121-1.905-5.014l5.11-29.806  c2.176,1.611,3.423,3.248,3.691,4.878c0.217,1.322-0.209,2.657-1.265,3.966c-1.428,1.771-2.304,3.798-2.534,5.865l-0.061,0.542  c-0.38,3.428,0.292,6.839,1.979,9.926l1.147,1.788c1.519,2.364,2.321,5.1,2.321,7.911c0,0.878-0.079,1.76-0.235,2.62l-7.748,42.612  c-0.1,0.543,0.261,1.063,0.805,1.162c0.061,0.012,0.12,0.017,0.18,0.017c0.475,0,0.896-0.338,0.982-0.821l7.748-42.612  C65.91,53.5,66,52.498,66,51.501c0-3.195-0.912-6.304-2.638-8.991l-1.111-1.727c-1.453-2.664-2.045-5.667-1.71-8.686l0.061-0.542  c0.188-1.687,0.915-3.357,2.103-4.831c1.409-1.747,1.99-3.665,1.682-5.545c-0.328-2.001-1.661-3.925-3.937-5.741  c6.581-1.318,13.097-3.127,19.393-5.434l2.27-0.833c1.544-0.463,3.164-0.325,4.563,0.391c1.386,0.708,2.39,1.898,2.825,3.351  c0.776,2.584-0.254,5.18-2.47,6.474c-2.16-3.244-6.096-4.476-10.502-3.217c-0.531,0.151-0.839,0.705-0.688,1.236  c0.152,0.532,0.711,0.837,1.236,0.687c3.804-1.084,7.127,0.086,8.676,3.058c0.237,0.457,0.783,0.657,1.261,0.465  C90.729,20.117,92.58,16.215,91.416,12.337z"
     id="path16"
     style="fill:#aac3c9;fill-opacity:1" /></svg>