<?xml version="1.0" encoding="UTF-8" standalone="no"?>
<svg
   xmlns:dc="http://purl.org/dc/elements/1.1/"
   xmlns:cc="http://creativecommons.org/ns#"
   xmlns:rdf="http://www.w3.org/1999/02/22-rdf-syntax-ns#"
   xmlns:svg="http://www.w3.org/2000/svg"
   xmlns="http://www.w3.org/2000/svg"
   xmlns:sodipodi="http://sodipodi.sourceforge.net/DTD/sodipodi-0.dtd"
   xmlns:inkscape="http://www.inkscape.org/namespaces/inkscape"
   version="1.1"
   x="0px"
   y="0px"
   viewBox="0 0 100 125"
   enable-background="new 0 0 100 100"
   xml:space="preserve"
   id="svg40"
   sodipodi:docname="lab_exam_results.svg"
   inkscape:version="0.92.2 (5c3e80d, 2017-08-06)"><metadata
     id="metadata46"><rdf:RDF><cc:Work
         rdf:about=""><dc:format>image/svg+xml</dc:format><dc:type
           rdf:resource="http://purl.org/dc/dcmitype/StillImage" /><dc:title /></cc:Work></rdf:RDF></metadata><defs
     id="defs44" /><sodipodi:namedview
     pagecolor="#ffffff"
     bordercolor="#666666"
     borderopacity="1"
     objecttolerance="10"
     gridtolerance="10"
     guidetolerance="10"
     inkscape:pageopacity="0"
     inkscape:pageshadow="2"
     inkscape:window-width="1920"
     inkscape:window-height="1025"
     id="namedview42"
     showgrid="false"
     inkscape:zoom="1.888"
     inkscape:cx="-111.54661"
     inkscape:cy="62.5"
     inkscape:window-x="0"
     inkscape:window-y="27"
     inkscape:window-maximized="1"
     inkscape:current-layer="svg40" /><g
     id="g34"
     style="fill:#aac3c9;fill-opacity:1"><circle
       cx="23.662"
       cy="46.414"
       r="0.95"
       id="circle2"
       style="fill:#aac3c9;fill-opacity:1" /><circle
       cx="22.976"
       cy="55.785"
       r="0.951"
       id="circle4"
       style="fill:#aac3c9;fill-opacity:1" /><circle
       cx="28.876"
       cy="58.977"
       r="0.949"
       id="circle6"
       style="fill:#aac3c9;fill-opacity:1" /><circle
       cx="27.816"
       cy="51.417"
       r="0.95"
       id="circle8"
       style="fill:#aac3c9;fill-opacity:1" /><circle
       cx="25.535"
       cy="64.028"
       r="0.95"
       id="circle10"
       style="fill:#aac3c9;fill-opacity:1" /><circle
       cx="72.453"
       cy="46.414"
       r="0.95"
       id="circle12"
       style="fill:#aac3c9;fill-opacity:1" /><circle
       cx="71.766"
       cy="55.785"
       r="0.951"
       id="circle14"
       style="fill:#aac3c9;fill-opacity:1" /><circle
       cx="77.667"
       cy="58.977"
       r="0.949"
       id="circle16"
       style="fill:#aac3c9;fill-opacity:1" /><path
       d="M76.606,52.367c0.526,0,0.952-0.425,0.952-0.95s-0.426-0.95-0.952-0.95c-0.522,0-0.948,0.425-0.948,0.95   S76.084,52.367,76.606,52.367z"
       id="path18"
       style="fill:#aac3c9;fill-opacity:1" /><circle
       cx="74.328"
       cy="64.028"
       r="0.95"
       id="circle20"
       style="fill:#aac3c9;fill-opacity:1" /><circle
       cx="48.058"
       cy="46.414"
       r="0.95"
       id="circle22"
       style="fill:#aac3c9;fill-opacity:1" /><circle
       cx="47.371"
       cy="55.785"
       r="0.951"
       id="circle24"
       style="fill:#aac3c9;fill-opacity:1" /><circle
       cx="53.272"
       cy="58.977"
       r="0.95"
       id="circle26"
       style="fill:#aac3c9;fill-opacity:1" /><circle
       cx="52.213"
       cy="51.417"
       r="0.95"
       id="circle28"
       style="fill:#aac3c9;fill-opacity:1" /><circle
       cx="49.932"
       cy="64.028"
       r="0.95"
       id="circle30"
       style="fill:#aac3c9;fill-opacity:1" /><path
       d="M87.933,31.528h-5.178V15.455h1.257c0.531,0,0.962-0.431,0.962-0.963s-0.431-0.963-0.962-0.963H64.779   c-0.531,0-0.962,0.431-0.962,0.963s0.431,0.963,0.962,0.963h1.257v16.073h-7.679V15.455h1.259c0.532,0,0.963-0.431,0.963-0.963   s-0.431-0.963-0.963-0.963H40.384c-0.532,0-0.963,0.431-0.963,0.963s0.431,0.963,0.963,0.963h1.258v16.073h-7.679V15.455h1.258   c0.531,0,0.962-0.431,0.962-0.963s-0.431-0.963-0.962-0.963H15.988c-0.531,0-0.962,0.431-0.962,0.963s0.431,0.963,0.962,0.963   h1.257v16.073h-5.178C8.171,31.528,5,34.874,5,38.988v40.022c0,4.113,3.347,7.46,7.46,7.46h75.08c4.113,0,7.46-3.347,7.46-7.46   V38.988C95,34.874,91.829,31.528,87.933,31.528z M67.962,15.455h12.867v25.941c-0.081,0.018-0.161,0.046-0.235,0.094   c-0.028,0.017-2.854,1.83-4.877-0.239c-2.275-2.324-4.267-4.354-7.755-3.277V15.455z M67.962,39.502   c2.792-1.058,4.251,0.235,6.723,2.759c1.039,1.062,2.248,1.426,3.383,1.426c1.056,0,2.036-0.315,2.762-0.679v20.937   c0,4.498-2.465,7.292-6.433,7.292c-3.969,0-6.435-2.794-6.435-7.292V39.502z M43.566,15.455h12.866v25.943   c-0.08,0.018-0.159,0.043-0.232,0.09c-0.115,0.076-2.868,1.817-4.88-0.237c-2.276-2.325-4.267-4.352-7.754-3.277V15.455z    M43.566,39.502c2.79-1.057,4.251,0.233,6.723,2.759c1.039,1.062,2.249,1.426,3.384,1.426c1.054,0,2.034-0.315,2.76-0.678v20.936   c0,4.498-2.465,7.292-6.433,7.292c-3.969,0-6.434-2.794-6.434-7.292V39.502z M19.171,15.455h12.866v25.942   c-0.08,0.018-0.16,0.044-0.233,0.092c-0.117,0.074-2.868,1.816-4.878-0.238c-2.276-2.324-4.267-4.354-7.755-3.277V15.455z    M19.171,39.502c2.792-1.058,4.251,0.235,6.723,2.759c1.039,1.062,2.248,1.426,3.383,1.426c1.055,0,2.035-0.315,2.761-0.679v20.937   c0,4.498-2.465,7.292-6.433,7.292c-3.969,0-6.434-2.794-6.434-7.292V39.502z M91.631,79.011c0,2.256-1.835,4.091-4.091,4.091H12.46   c-2.256,0-4.091-1.835-4.091-4.091V38.988c0-2.257,1.659-4.092,3.698-4.092h5.178v29.048c0,6.367,4.198,9.218,8.359,9.218   c4.16,0,8.358-2.851,8.358-9.218V34.896h7.679v29.048c0,6.367,4.198,9.218,8.358,9.218s8.357-2.851,8.357-9.218V34.896h7.679   v29.048c0,6.367,4.198,9.218,8.36,9.218c4.16,0,8.358-2.851,8.358-9.218V34.896h5.178c2.039,0,3.698,1.835,3.698,4.092V79.011z"
       id="path32"
       style="fill:#aac3c9;fill-opacity:1" /></g></svg>