<?xml version="1.0" encoding="UTF-8" standalone="no"?>
<svg
   xmlns:dc="http://purl.org/dc/elements/1.1/"
   xmlns:cc="http://creativecommons.org/ns#"
   xmlns:rdf="http://www.w3.org/1999/02/22-rdf-syntax-ns#"
   xmlns:svg="http://www.w3.org/2000/svg"
   xmlns="http://www.w3.org/2000/svg"
   xmlns:sodipodi="http://sodipodi.sourceforge.net/DTD/sodipodi-0.dtd"
   xmlns:inkscape="http://www.inkscape.org/namespaces/inkscape"
   xml:space="preserve"
   version="1.1"
   style="shape-rendering:geometricPrecision;text-rendering:geometricPrecision;image-rendering:optimizeQuality;"
   viewBox="0 0 1.662 1.7574999999999998"
   x="0px"
   y="0px"
   fill-rule="evenodd"
   clip-rule="evenodd"
   id="svg14"
   sodipodi:docname="newborn.svg"
   inkscape:version="0.92.2 (5c3e80d, 2017-08-06)"><metadata
     id="metadata18"><rdf:RDF><cc:Work
         rdf:about=""><dc:format>image/svg+xml</dc:format><dc:type
           rdf:resource="http://purl.org/dc/dcmitype/StillImage" /><dc:title /></cc:Work></rdf:RDF></metadata><sodipodi:namedview
     pagecolor="#ffffff"
     bordercolor="#666666"
     borderopacity="1"
     objecttolerance="10"
     gridtolerance="10"
     guidetolerance="10"
     inkscape:pageopacity="0"
     inkscape:pageshadow="2"
     inkscape:window-width="1920"
     inkscape:window-height="1025"
     id="namedview16"
     showgrid="false"
     inkscape:zoom="134.28165"
     inkscape:cx="-1.4403454"
     inkscape:cy="0.87875006"
     inkscape:window-x="0"
     inkscape:window-y="27"
     inkscape:window-maximized="1"
     inkscape:current-layer="svg14" /><defs
     id="defs4"><style
       type="text/css"
       id="style2">
   
    .fil0 {fill:black;fill-rule:nonzero}
   
  </style></defs><g
     id="g8"
     style="fill:#aac3c9;fill-opacity:1"><path
       class="fil0"
       d="M0.749 0c0.016,-0.002 0.03,0.01 0.031,0.025 0.002,0.015 -0.009,0.029 -0.024,0.031 -0.163,0.019 -0.307,0.098 -0.41,0.214 -0.102,0.114 -0.164,0.265 -0.164,0.431 0,0.179 0.073,0.341 0.19,0.459 0.117,0.117 0.28,0.19 0.459,0.19 0.179,0 0.341,-0.073 0.459,-0.19 0.117,-0.118 0.19,-0.28 0.19,-0.459 0,-0.127 -0.035,-0.247 -0.097,-0.347 -0.062,-0.101 -0.15,-0.182 -0.257,-0.232 -0.05,-0.022 -0.097,-0.028 -0.14,-0.024 -0.055,0.005 -0.103,0.026 -0.139,0.05 -0.047,0.032 -0.082,0.077 -0.097,0.121 -0.007,0.021 -0.01,0.042 -0.007,0.06 0.003,0.015 0.011,0.029 0.024,0.039 0.017,0.012 0.042,0.02 0.079,0.019 0.023,0 0.04,-0.008 0.052,-0.019 0.011,-0.01 0.018,-0.025 0.021,-0.04 0.004,-0.017 0.004,-0.034 0.001,-0.049 -0.004,-0.015 -0.01,-0.028 -0.019,-0.033 -0.013,-0.008 -0.017,-0.025 -0.009,-0.038 0.008,-0.014 0.025,-0.018 0.038,-0.01 0.022,0.013 0.038,0.039 0.045,0.069 0.005,0.023 0.005,0.049 -0.001,0.073 -0.006,0.026 -0.018,0.05 -0.038,0.069 -0.021,0.02 -0.051,0.034 -0.09,0.034 -0.049,0.001 -0.086,-0.01 -0.112,-0.03 -0.026,-0.019 -0.041,-0.045 -0.046,-0.074 -0.005,-0.028 -0.001,-0.058 0.009,-0.089 0.019,-0.054 0.061,-0.11 0.118,-0.148 0.044,-0.029 0.101,-0.054 0.166,-0.06 0.052,-0.005 0.109,0.002 0.168,0.029 0.118,0.054 0.215,0.143 0.282,0.253 0.039,0.064 0.068,0.134 0.086,0.209 0.037,0.006 0.07,0.023 0.095,0.048 0.031,0.031 0.05,0.073 0.05,0.12 0,0.047 -0.019,0.089 -0.05,0.12 -0.025,0.025 -0.058,0.042 -0.096,0.048 -0.031,0.127 -0.096,0.241 -0.186,0.331 -0.128,0.127 -0.304,0.206 -0.499,0.206 -0.195,0 -0.371,-0.079 -0.499,-0.206 -0.09,-0.09 -0.155,-0.204 -0.186,-0.331 -0.038,-0.006 -0.071,-0.023 -0.096,-0.048 -0.031,-0.031 -0.05,-0.073 -0.05,-0.12 0,-0.047 0.019,-0.089 0.05,-0.12 0.025,-0.025 0.058,-0.043 0.096,-0.048 0.027,-0.113 0.082,-0.216 0.158,-0.301 0.112,-0.126 0.269,-0.211 0.445,-0.232zm-0.125 0.961c0.033,0.006 0.068,0.01 0.105,0.014 0.034,0.003 0.068,0.004 0.102,0.004 0.033,0 0.068,-0.001 0.102,-0.004 0.037,-0.004 0.072,-0.008 0.105,-0.014 0.015,-0.003 0.03,0.008 0.032,0.023 0.001,0.002 0.001,0.005 0.001,0.007 -0.001,0.053 -0.014,0.106 -0.051,0.147 -0.083,0.091 -0.295,0.091 -0.378,0 -0.037,-0.041 -0.05,-0.094 -0.051,-0.147l0 -0.002c0,-0.016 0.013,-0.028 0.028,-0.028 0.002,0 0.003,0 0.005,0zm0.599 -0.357c0.01,0.011 0.009,0.029 -0.002,0.04 -0.012,0.01 -0.029,0.009 -0.04,-0.002 -0.004,-0.005 -0.008,-0.009 -0.013,-0.013 -0.022,-0.017 -0.049,-0.026 -0.075,-0.025 -0.026,0 -0.052,0.009 -0.071,0.026 -0.003,0.003 -0.006,0.006 -0.01,0.01 -0.009,0.012 -0.027,0.014 -0.039,0.005 -0.012,-0.01 -0.014,-0.028 -0.005,-0.04 0.005,-0.006 0.011,-0.012 0.017,-0.017 0.029,-0.027 0.068,-0.04 0.108,-0.041 0.038,0 0.078,0.013 0.11,0.038 0.007,0.006 0.014,0.012 0.02,0.019zm-0.742 0.038c-0.011,0.011 -0.029,0.012 -0.04,0.002 -0.012,-0.011 -0.013,-0.029 -0.002,-0.04 0.006,-0.007 0.013,-0.013 0.02,-0.019 0.032,-0.025 0.071,-0.038 0.11,-0.038 0.04,0.001 0.079,0.014 0.108,0.041 0.006,0.005 0.012,0.011 0.016,0.017 0.01,0.012 0.008,0.03 -0.004,0.04 -0.012,0.009 -0.03,0.007 -0.04,-0.005 -0.003,-0.004 -0.006,-0.007 -0.01,-0.01 -0.018,-0.017 -0.044,-0.026 -0.07,-0.026 -0.027,-0.001 -0.054,0.008 -0.075,0.025 -0.005,0.004 -0.01,0.008 -0.013,0.013zm1.048 -0.048c0.005,0.035 0.007,0.071 0.007,0.107 0,0.036 -0.002,0.072 -0.008,0.107 0.017,-0.006 0.032,-0.015 0.044,-0.027 0.021,-0.021 0.033,-0.049 0.033,-0.08 0,-0.031 -0.012,-0.06 -0.033,-0.08 -0.012,-0.012 -0.027,-0.021 -0.043,-0.027zm-1.395 0.214c-0.006,-0.035 -0.009,-0.071 -0.009,-0.107 0,-0.036 0.003,-0.072 0.009,-0.107 -0.017,0.005 -0.032,0.015 -0.045,0.027 -0.02,0.02 -0.033,0.049 -0.033,0.08 0,0.031 0.013,0.059 0.033,0.08 0.013,0.012 0.028,0.021 0.045,0.027z"
       id="path6"
       style="fill:#aac3c9;fill-opacity:1" /></g><text
     x="0"
     y="16.406"
     fill="#000000"
     font-size="5px"
     font-weight="bold"
     font-family="'Helvetica Neue', Helvetica, Arial-Unicode, Arial, Sans-serif"
     id="text10">Created by Deemak Daksina S</text>
<text
     x="0"
     y="21.406"
     fill="#000000"
     font-size="5px"
     font-weight="bold"
     font-family="'Helvetica Neue', Helvetica, Arial-Unicode, Arial, Sans-serif"
     id="text12">from the Noun Project</text>
</svg>