<?xml version="1.0" encoding="UTF-8" standalone="no"?>
<svg
   xmlns:dc="http://purl.org/dc/elements/1.1/"
   xmlns:cc="http://creativecommons.org/ns#"
   xmlns:rdf="http://www.w3.org/1999/02/22-rdf-syntax-ns#"
   xmlns:svg="http://www.w3.org/2000/svg"
   xmlns="http://www.w3.org/2000/svg"
   xmlns:sodipodi="http://sodipodi.sourceforge.net/DTD/sodipodi-0.dtd"
   xmlns:inkscape="http://www.inkscape.org/namespaces/inkscape"
   version="1.1"
   x="0px"
   y="0px"
   viewBox="0 0 91 113.75"
   style="enable-background:new 0 0 91 91;"
   xml:space="preserve"
   id="svg18"
   sodipodi:docname="perineum_rehabilitation.svg"
   inkscape:version="0.92.2 (5c3e80d, 2017-08-06)"><metadata
     id="metadata24"><rdf:RDF><cc:Work
         rdf:about=""><dc:format>image/svg+xml</dc:format><dc:type
           rdf:resource="http://purl.org/dc/dcmitype/StillImage" /><dc:title /></cc:Work></rdf:RDF></metadata><defs
     id="defs22" /><sodipodi:namedview
     pagecolor="#ffffff"
     bordercolor="#666666"
     borderopacity="1"
     objecttolerance="10"
     gridtolerance="10"
     guidetolerance="10"
     inkscape:pageopacity="0"
     inkscape:pageshadow="2"
     inkscape:window-width="1920"
     inkscape:window-height="1025"
     id="namedview20"
     showgrid="false"
     inkscape:zoom="2.0747253"
     inkscape:cx="-101.50742"
     inkscape:cy="56.875001"
     inkscape:window-x="0"
     inkscape:window-y="27"
     inkscape:window-maximized="1"
     inkscape:current-layer="svg18" /><g
     id="g12"
     style="fill:#aac3c9;fill-opacity:1"><g
       id="g8"
       style="fill:#aac3c9;fill-opacity:1"><path
         d="M20.3,89.7c-0.8,0-1.6-0.5-2-1.2c-1.4-2.7-2.7-5.6-3.9-8.5c-3-7.1-5.1-13.5-6.3-19.7c-1-4.7-1.4-9-1.4-13.1    c-0.1-5.8,1-11.9,3.4-19.1c2.4-7.2,4-14.5,4.7-21.5L14.8,6c0-0.4,0.1-0.8,0.1-1.2c0.1-1.2,1.3-2.1,2.5-2c1.2,0.1,2.1,1.3,2,2.5    c0,0.4-0.1,0.8-0.1,1.1l-0.1,0.7c-0.8,7.4-2.4,14.9-4.9,22.5c-2.2,6.7-3.2,12.3-3.1,17.7c0,3.8,0.4,7.8,1.3,12.2    c1.2,5.8,3.2,12,6,18.8c1.2,2.8,2.5,5.6,3.8,8.2c0.6,1.1,0.1,2.5-1,3.1C21,89.7,20.6,89.7,20.3,89.7z"
         id="path2"
         style="fill:#aac3c9;fill-opacity:1" /><path
         d="M72.4,89.7c-0.3,0-0.7-0.1-1-0.2c-1.1-0.6-1.6-1.9-1-3.1c1.3-2.6,2.6-5.4,3.8-8.2c2.9-6.8,4.9-12.9,6-18.8    c0.9-4.4,1.3-8.4,1.3-12.1c0.1-5.4-0.9-11-3.1-17.7c-2.5-7.6-4.1-15.1-4.9-22.5l-0.1-0.7c0-0.4-0.1-0.7-0.1-1.1    c-0.1-1.2,0.8-2.4,2-2.5c1.3-0.1,2.4,0.8,2.5,2c0,0.4,0.1,0.8,0.1,1.1L78,6.6c0.7,7.1,2.3,14.3,4.7,21.5    c2.4,7.2,3.4,13.3,3.4,19.2c0,4-0.4,8.3-1.4,13c-1.2,6.2-3.3,12.6-6.3,19.7c-1.2,2.9-2.6,5.8-3.9,8.5    C74.1,89.3,73.3,89.7,72.4,89.7z"
         id="path4"
         style="fill:#aac3c9;fill-opacity:1" /><path
         d="M49.8,56.8c0-3,0-5.8,0-8.6c0-0.6,0-1.1,0-1.7c0.1-0.9,0.6-1.3,1.5-1.3c0.9,0,1.1,0.6,1.1,1.4c0,2.1,0,4.3,0,6.4    c0,1.2,0.2,2.3,0,3.5c0.4,0,0.6-0.3,0.8-0.6c3-3.4,6.5-6.1,10.3-8.4c0.9-0.5,1.9-0.2,2.5,0.6c0.6,0.9,0.3,1.9-0.6,2.6    c-2,1.3-4,2.7-5.9,4.3c-2.3,2-4.4,4.1-6,6.8c-0.4,0.7-0.6,1.3-0.6,2.1c0,7.5,0,14.9,0,22.4c0,0.1,0,0.2,0,0.4c0,1.2-0.8,2-1.9,2    c-1,0-1.8-0.9-1.9-2.1c0-1.1,0-2.3,0-3.4c0-6.4,0-12.8,0-19.2c0-0.9-0.2-1.6-0.7-2.3c-2.2-3.4-4.8-6.6-8.2-8.9    c-1.1-0.7-2.2-1.3-3.5-1.8c-1.2-0.5-1.7-1.5-1.3-2.6c0.4-1,1.4-1.3,2.6-0.9c3.7,1.4,6.7,3.8,9.4,6.7C48.3,55,48.9,55.8,49.8,56.8z    "
         id="path6"
         style="fill:#aac3c9;fill-opacity:1" /></g><path
       d="M49.8,20.7c-0.1,0-0.2,0-0.4,0c-0.9-0.2-1.4-1.1-1.2-1.9c0.3-1.4,1.6-3.8,4.2-4.3c0.9-0.2,1.7,0.4,1.9,1.3   c0.2,0.9-0.4,1.7-1.3,1.9c-1.2,0.2-1.7,1.8-1.7,1.8C51.2,20.2,50.5,20.7,49.8,20.7z"
       id="path10"
       style="fill:#aac3c9;fill-opacity:1" /></g></svg>