<?xml version="1.0" encoding="UTF-8" standalone="no"?>
<svg
   xmlns:dc="http://purl.org/dc/elements/1.1/"
   xmlns:cc="http://creativecommons.org/ns#"
   xmlns:rdf="http://www.w3.org/1999/02/22-rdf-syntax-ns#"
   xmlns:svg="http://www.w3.org/2000/svg"
   xmlns="http://www.w3.org/2000/svg"
   xmlns:sodipodi="http://sodipodi.sourceforge.net/DTD/sodipodi-0.dtd"
   xmlns:inkscape="http://www.inkscape.org/namespaces/inkscape"
   version="1.1"
   x="0px"
   y="0px"
   viewBox="-250 373.9 95 118.75"
   style="enable-background:new -250 373.9 95 95;"
   xml:space="preserve"
   id="svg8"
   sodipodi:docname="pregnancy.svg"
   inkscape:version="0.92.2 (5c3e80d, 2017-08-06)"><metadata
     id="metadata14"><rdf:RDF><cc:Work
         rdf:about=""><dc:format>image/svg+xml</dc:format><dc:type
           rdf:resource="http://purl.org/dc/dcmitype/StillImage" /><dc:title></dc:title></cc:Work></rdf:RDF></metadata><defs
     id="defs12" /><sodipodi:namedview
     pagecolor="#ffffff"
     bordercolor="#666666"
     borderopacity="1"
     objecttolerance="10"
     gridtolerance="10"
     guidetolerance="10"
     inkscape:pageopacity="0"
     inkscape:pageshadow="2"
     inkscape:window-width="1920"
     inkscape:window-height="1025"
     id="namedview10"
     showgrid="false"
     inkscape:zoom="1.9873684"
     inkscape:cx="-5.3336864"
     inkscape:cy="99.629237"
     inkscape:window-x="0"
     inkscape:window-y="27"
     inkscape:window-maximized="1"
     inkscape:current-layer="svg8" /><path
     d="m -224.36188,376 c 0.4,0.9 0.9,1.8 1.4,2.6 0.8,1.6 1.7,3.1 2.5,4.6 1,1.7 1.9,3.4 3,5.1 0.8,1.4 1.7,2.8 2.7,4.1 3.1,4 7.4,7.7 11.5,11 0.7,0.6 1.6,1.2 2.3,1.8 0.7,0.6 2.1,1.4 2.4,2.2 0.3,0.8 -0.1,2.2 -0.4,3 -0.3,0.9 -0.7,1.8 -1.4,2.5 -1.1,1.4 -3,2.1 -5,2.5 -1,0.2 -2.1,0.7 -1.3,1.7 0.7,0.8 2.3,1.4 3.1,2 2.3,1.4 4.4,3.2 6.4,4.9 0.7,0.6 1.3,1.2 2,1.8 0.1,0.1 0.7,0.7 0.9,0.7 -1.8,-0.5 -4,0 -5.8,0.2 -2.3,0.4 -4,1.3 -6,2 -1.4,0.5 -2.7,0 -4.1,-0.2 -2,-0.5 -3.8,-0.8 -5.7,-1.4 -0.8,-0.3 -1.7,-0.5 -2.6,-0.7 -0.8,-0.2 -1.6,-0.4 -2.4,-0.7 -0.4,-0.1 -0.8,-0.2 -1.1,-0.4 -0.4,-0.1 -0.7,-0.3 -1.1,-0.1 -0.5,0.2 -0.7,0.9 -0.4,1.3 0.2,0.2 0.5,0.3 0.8,0.4 1.5,0.5 3.1,1 4.6,1.4 1.5,0.5 3.1,0.9 4.7,1.3 1.6,0.4 3.2,0.7 4.8,1 1,0.1 1.8,0.2 2.8,0 1.7,-0.4 3.1,-1.3 4.7,-1.8 1.6,-0.5 3.7,-0.8 5.4,-0.7 1.4,0 2.6,0.7 4.1,0.7 0.7,0 2,-0.4 1.4,0.7 -0.1,0.6 -1.1,1.1 -1.8,1.2 -1.6,0.4 -3.3,0 -4.8,0.4 1.7,0.6 3.4,1.1 5.3,1.3 1.7,0.2 3.4,0.4 5.1,0.8 -3.6,-6.5 -9.1,-12.3 -16.1,-16.4 2.7,-0.8 4.7,-2.5 5.8,-4.7 1,-1.8 1.8,-4.5 0.1,-6.2 -1.8,-1.8 -4.1,-3.3 -6.1,-5 -2.7,-2.1 -5.3,-4.5 -7.5,-6.9 -1.3,-1.4 -2.5,-2.9 -3.6,-4.4 -1.5,-2.2 -2.7,-4.4 -3.9,-6.8 -1.2,-2.3 -2.4,-4.6 -3.6,-6.9 -0.3,-0.7 -0.8,-1.5 -1.5,-1.8 -0.5,-0.2 -1.2,-0.1 -1.6,0.3 -0.4,0.4 -0.3,1 0,1.6 z m 38.5,59.9 c -1.1,-0.1 -2.4,0 -3.7,0 -1.3,-0.1 -2.4,-0.5 -3.7,-0.8 1.3,-0.1 2.4,0 3.7,0.1 1.1,0.1 3,0.4 4,-0.2 -0.1,0 0.4,0.9 0.4,1.1 z m -0.2,5.8 c -0.7,-0.4 -1.5,1.1 -1.9,1.5 -2,1.5 -6,1.4 -8.4,1 -2.1,-0.4 -4.4,-0.8 -6.5,-1.4 -2.1,-0.7 -4.1,-1.9 -6.4,-2.4 -3.3,-0.8 -6.6,-1.4 -9.9,-1.9 -1.1,-0.2 -2.2,-0.2 -3.3,-0.3 -0.8,-0.1 -1.6,-0.3 -1.6,-1.2 0,-0.8 0.5,-1.1 1.2,-1.1 0.6,0 1.3,0.1 1.8,0.2 3.3,0.5 6.6,1 9.9,1.7 2.1,0.5 4,0.9 6,1.8 2.6,1.1 5.3,1.7 8,2.2 1.6,0.4 3.3,0.6 5,0.5 0.9,0 2.3,0 3,-0.5 0.6,-0.4 0.6,-0.7 0,-1.1 -0.7,-0.4 -1.6,0 -2.1,0 -1.1,0.1 -2.3,-0.4 -3.3,-0.7 1.8,0.1 3.6,0.2 5.4,0.1 0.9,0 3.6,0 3.7,-0.9 0.1,-1.2 -2.1,-1.1 -2.8,-1.1 -1.8,0.2 -3.1,0.1 -4.8,-0.5 1.4,0.2 2.8,0.2 4.3,0.2 1.1,0 2.2,0 3.3,-0.3 0.1,0 1,-0.5 1,-0.5 2.7,6.9 2.4,14.3 -2.1,20.5 -3.7,5.1 -9.8,8.8 -16.6,10.3 -3.7,0.8 -7.7,1.1 -11.5,0.8 -1.2,-0.1 -2.3,-0.2 -3.5,-0.3 -1.2,-0.2 -2.3,-0.4 -3.5,-0.6 -0.7,-0.1 -1.9,-0.1 -1.9,-1.1 0,-0.3 0.1,-0.5 0.4,-0.7 0.2,-0.1 0.4,-0.2 0.7,-0.2 0.3,0 0.5,0 0.8,0.1 2.3,0.5 4.6,0.9 6.9,1 1.8,0.1 3.6,0.2 5.4,0 4.7,-0.5 9.7,-1.7 13.8,-4.1 6,-3.4 10.2,-9.3 10.5,-15.5 0.1,-1.3 0,-2.7 -0.1,-4 -0.5,-0.2 -0.5,-1.4 -0.9,-1.5 z"
     id="path2"
     style="fill:#baced3;fill-opacity:1"
     inkscape:connector-curvature="0" /></svg>
